<svg width="32" height="32" viewBox="0 0 32 32" fill="none" xmlns="http://www.w3.org/2000/svg">
<path fill-rule="evenodd" clip-rule="evenodd" d="M15.9996 2.54547C8.56833 2.54547 2.5451 8.56869 2.5451 16C2.5451 23.4298 8.56841 29.4546 15.9996 29.4546C23.4294 29.4546 29.4542 23.4298 29.4542 16C29.4542 8.56877 23.4295 2.54547 15.9996 2.54547ZM0.363281 16C0.363281 7.36371 7.36334 0.363647 15.9996 0.363647C24.6343 0.363647 31.636 7.36363 31.636 16C31.636 24.6347 24.6344 31.6364 15.9996 31.6364C7.36327 31.6364 0.363281 24.6347 0.363281 16Z" fill="#828A97"/>
<path fill-rule="evenodd" clip-rule="evenodd" d="M16.0001 14.9091C16.6026 14.9091 17.091 15.3975 17.091 16V22.5454C17.091 23.1479 16.6026 23.6363 16.0001 23.6363C15.3976 23.6363 14.9092 23.1479 14.9092 22.5454V16C14.9092 15.3975 15.3976 14.9091 16.0001 14.9091Z" fill="#828A97"/>
<path fill-rule="evenodd" clip-rule="evenodd" d="M14.5381 10.5455C14.5381 9.74216 15.1893 9.09094 15.9926 9.09094H16.0072C16.8105 9.09094 17.4617 9.74216 17.4617 10.5455C17.4617 11.3488 16.8105 12 16.0072 12H15.9926C15.1893 12 14.5381 11.3488 14.5381 10.5455Z" fill="#828A97"/>
</svg>
